<?xml version="1.0" standalone="no"?>
<!DOCTYPE svg PUBLIC "-//W3C//DTD SVG 20010904//EN"
 "http://www.w3.org/TR/2001/REC-SVG-20010904/DTD/svg10.dtd">
<svg version="1.0" xmlns="http://www.w3.org/2000/svg"
 width="1080.000000pt" height="1080.000000pt" viewBox="0 0 1080.000000 1080.000000"
 preserveAspectRatio="xMidYMid meet">

<g transform="translate(0.000000,1080.000000) scale(0.100000,-0.100000)"
fill="#000000" stroke="none">
<path d="M8336 10188 c-25 -35 -20 -136 10 -226 75 -226 349 -654 624 -977
123 -144 291 -311 371 -367 146 -103 354 -195 462 -204 55 -5 65 -3 86 17 20
19 23 28 18 69 -14 118 -143 325 -391 625 -299 361 -771 851 -961 996 -116 89
-189 111 -219 67z"/>
<path d="M7337 10040 c-121 -47 -296 -187 -542 -434 -405 -406 -788 -941 -803
-1121 -10 -118 84 -113 305 18 186 110 343 238 558 459 439 449 728 956 610
1073 -29 30 -62 31 -128 5z"/>
<path d="M820 8040 l0 -1780 1905 0 1905 0 0 1780 0 1780 -1905 0 -1905 0 0
-1780z m1036 1402 c129 -66 167 -200 168 -587 1 -259 -11 -362 -69 -593 -57
-226 -109 -349 -232 -548 -120 -195 -136 -379 -36 -420 210 -88 498 329 628
911 43 192 55 311 65 640 12 368 23 453 72 525 42 60 71 75 151 75 40 -1 98
-9 130 -18 197 -60 279 -333 357 -1187 15 -163 45 -360 69 -458 64 -248 165
-330 446 -362 214 -25 352 40 331 155 -16 83 -117 149 -253 164 -126 14 -171
59 -212 211 -39 148 -46 246 -46 680 0 435 6 528 46 656 28 91 92 157 167 173
67 14 205 14 255 0 85 -23 143 -108 172 -251 35 -171 38 -279 42 -1395 l5
-1113 -1386 0 -1386 0 -2 723 c-5 1200 2 1525 37 1744 29 178 73 252 174 290
58 22 255 12 307 -15z"/>
<path d="M7180 8549 c-445 -24 -648 -71 -681 -157 -20 -51 43 -144 150 -226
132 -100 217 -134 496 -197 121 -28 225 -52 232 -54 11 -4 -331 -579 -434
-730 -86 -126 -191 -255 -307 -373 -123 -126 -199 -183 -318 -240 -133 -65
-227 -184 -215 -274 12 -90 88 -140 216 -142 74 -1 83 2 172 46 161 80 354
239 551 453 307 333 524 654 616 917 17 47 42 108 56 135 70 139 247 262 444
309 83 20 265 23 347 5 150 -32 271 -121 329 -241 30 -64 31 -68 30 -210 -1
-311 -93 -575 -272 -788 -92 -108 -260 -211 -394 -241 -26 -6 -115 -15 -200
-21 -271 -17 -418 -79 -418 -175 0 -75 107 -127 356 -170 121 -22 387 -25 523
-6 446 62 661 311 741 861 33 226 40 402 40 978 l0 552 -952 -1 c-524 -1
-1023 -6 -1108 -10z"/>
<path d="M2324 4790 c-37 -15 -72 -68 -84 -126 -13 -62 -8 -121 21 -236 23
-91 24 -178 4 -218 -8 -15 -30 -37 -48 -49 -68 -41 -139 -52 -422 -61 -281
-10 -378 -19 -506 -46 -137 -29 -243 -104 -213 -151 39 -62 238 -106 626 -139
153 -13 387 -18 1130 -23 l937 -6 -229 -295 c-126 -162 -275 -344 -331 -403
-287 -306 -796 -672 -1264 -910 -732 -372 -1269 -873 -1196 -1116 32 -108 124
-98 326 36 50 33 142 104 205 157 69 58 145 112 189 134 140 69 236 52 561
-103 230 -109 264 -122 441 -169 375 -99 830 -150 1334 -149 395 0 588 24 723
89 57 28 85 66 72 99 -11 29 -27 40 -90 65 -147 58 -393 87 -850 100 -518 15
-838 63 -1115 167 -111 42 -325 194 -366 260 -37 59 -1 87 181 143 58 18 128
44 155 58 422 211 1433 1287 1682 1789 75 151 69 229 -25 300 -90 68 -239 97
-577 113 -116 5 -247 16 -292 25 -232 44 -375 137 -499 323 -79 119 -241 279
-324 320 -63 32 -114 39 -156 22z"/>
<path d="M7435 2859 c-542 -18 -953 -65 -1044 -120 -206 -125 675 -211 2014
-195 1044 11 1606 73 1568 172 -18 47 -236 89 -618 119 -423 32 -1310 43
-1920 24z"/>
</g>
</svg>
